<?xml version="1.0" standalone="no"?>
<!DOCTYPE svg PUBLIC "-//W3C//DTD SVG 20010904//EN"
 "http://www.w3.org/TR/2001/REC-SVG-20010904/DTD/svg10.dtd">
<svg version="1.0" xmlns="http://www.w3.org/2000/svg"
 viewBox="850 1850 500 500"
 preserveAspectRatio="xMidYMid meet">

<g transform="translate(0.000000,4028.000000) scale(0.100000,-0.100000)" stroke="none">

<!-- Heart (Warm) -->
<path fill="#c9825b" d="M11015 21540 c-66 -9 -92 -20 -144 -64 -46 -39 -58 -38 -96 4 -33 37
-94 60 -163 60 -74 0 -105 -14 -155 -69 -87 -97 -70 -214 50 -334 31 -31 61
-57 65 -57 4 0 8 -6 8 -13 0 -19 97 -110 109 -102 6 3 8 0 5 -9 -3 -9 3 -19
16 -26 12 -6 36 -26 53 -45 69 -72 88 -62 291 150 163 171 167 176 189 235 22
60 21 85 -7 145 -44 96 -120 139 -221 125z"/>

<!-- Roof (Warm) -->
<path fill="#c9825b" d="M10774 20667 c-12 -7 -53 -39 -90 -73 -106 -94 -162 -142 -275 -235
-57 -48 -158 -135 -224 -194 -66 -59 -185 -162 -265 -228 -184 -155 -296 -257
-293 -268 2 -5 -3 -8 -10 -6 -6 1 -11 -4 -9 -11 1 -8 -2 -11 -8 -7 -6 3 -52
-29 -103 -72 -176 -149 -292 -248 -372 -318 -44 -39 -125 -109 -180 -155 -148
-125 -146 -123 -157 -144 -7 -13 -7 -16 1 -12 6 4 11 3 11 -3 0 -5 -4 -13 -10
-16 -5 -3 -10 -15 -10 -26 0 -21 -2 -21 120 -23 47 -1 95 -7 107 -14 l23 -12
2 -718 3 -717 24 -32 c17 -23 35 -34 64 -38 34 -6 43 -4 66 19 l26 26 5 843 5
842 36 35 c20 19 56 51 80 71 156 129 203 169 282 241 48 44 100 90 115 101
15 12 29 24 32 27 3 3 30 25 60 50 30 24 89 74 131 110 42 36 101 86 130 111
30 25 95 81 144 124 50 42 104 88 120 101 42 33 267 225 344 293 112 98 131
104 181 59 31 -28 81 -70 145 -123 27 -22 70 -58 95 -80 25 -22 81 -69 125
-105 44 -35 100 -83 123 -105 24 -22 46 -38 50 -37 3 2 9 -3 14 -12 5 -9 14
-13 20 -10 6 4 8 2 4 -4 -3 -6 -2 -13 4 -17 5 -3 10 -1 10 5 0 6 5 8 10 5 6
-4 8 -10 5 -14 -2 -5 19 -28 47 -52 29 -24 60 -52 71 -63 14 -13 21 -15 27 -7
5 9 10 8 20 -4 11 -13 10 -15 -6 -9 -11 3 -3 -9 20 -30 21 -20 43 -33 48 -30
5 3 7 1 6 -4 -4 -12 28 -42 136 -129 44 -37 86 -71 92 -77 77 -76 226 -196
235 -190 4 2 11 -1 15 -7 5 -8 2 -10 -7 -5 -8 4 -5 1 5 -6 10 -7 30 -25 44
-41 40 -43 128 -108 143 -105 7 2 13 -2 14 -9 0 -7 9 -23 20 -35 20 -23 20
-41 25 -858 4 -677 8 -839 18 -855 21 -31 59 -45 107 -38 33 4 46 11 54 31 9
18 12 224 11 758 0 498 3 735 10 739 6 4 53 7 106 8 71 2 97 6 104 17 8 13 10
13 10 1 0 -12 3 -12 12 -3 10 10 10 15 -1 21 -11 7 -11 10 4 12 15 4 15 6 -4
31 -12 15 -63 62 -114 104 -51 43 -95 82 -98 87 -4 5 -12 6 -19 2 -8 -5 -11
-4 -7 2 9 15 -39 57 -54 48 -7 -5 -10 -4 -6 2 6 10 -9 26 -101 106 -18 15 -38
25 -44 21 -6 -4 -8 -3 -5 3 3 5 -25 40 -63 77 l-69 66 -3 396 c-3 338 -5 396
-18 404 -19 12 -340 13 -359 1 -8 -5 -11 -16 -8 -26 4 -9 3 -14 -2 -11 -8 5
-21 -183 -21 -309 0 -86 -9 -95 -59 -62 -23 15 -41 24 -42 20 0 -5 -4 1 -8 12
-5 11 -34 33 -65 49 -54 28 -96 60 -96 73 0 4 12 -4 26 -18 16 -15 25 -18 22
-9 -2 8 -18 22 -36 31 -17 9 -29 19 -25 23 10 10 -12 7 -25 -4 -9 -7 -9 -7 -2
2 15 18 12 31 -6 24 -8 -3 -13 -2 -9 3 5 8 -133 134 -265 241 -30 25 -66 55
-80 66 -108 93 -134 113 -144 107 -6 -3 -8 -2 -3 2 4 5 -3 19 -15 32 -25 27
-47 31 -27 6 13 -16 12 -17 -3 -4 -10 7 -16 17 -13 21 5 9 -96 100 -132 119
-28 14 -72 14 -99 -2z m761 -577 c3 -5 1 -10 -4 -10 -6 0 -11 5 -11 10 0 6 2
10 4 10 3 0 8 -4 11 -10z m-1865 -394 c0 -2 -7 -7 -16 -10 -8 -3 -12 -2 -9 4
6 10 25 14 25 6z m2861 -453 c13 -16 12 -17 -3 -4 -10 7 -18 15 -18 17 0 8 8
3 21 -13z"/>

<!-- Steam 1 (Dark) -->
<path fill="#4b2f23" d="M11677 19979 c7 -7 15 -10 18 -7 3 3 -2 9 -12 12 -14 6 -15 5 -6 -5z"/>

<!-- Steam 2 (Dark) -->
<path fill="#4b2f23" d="M10874 19808 c-21 -19 -51 -62 -68 -98 -28 -61 -30 -72 -31 -190 0
-126 0 -126 37 -202 22 -44 65 -106 104 -149 127 -141 149 -192 142 -321 -3
-61 -10 -88 -48 -167 l-44 -93 23 -20 c93 -75 260 158 261 363 0 74 -31 171
-74 234 -19 28 -66 85 -105 129 -39 43 -83 103 -97 132 -24 50 -26 62 -22 151
3 70 11 116 28 162 l24 64 -23 18 c-34 27 -65 23 -107 -13z"/>

<!-- Steam 3 (Dark) -->
<path fill="#4b2f23" d="M10354 19473 c-54 -59 -77 -132 -78 -243 -1 -128 16 -163 144 -295
77 -79 100 -109 101 -131 2 -61 -2 -111 -13 -172 -12 -62 -11 -64 12 -83 53
-41 106 -1 145 106 23 63 27 85 23 157 -5 107 -20 137 -119 234 -128 127 -147
185 -112 348 l17 79 -23 18 c-34 28 -59 23 -97 -18z"/>

<!-- Dome (Warm) -->
<path fill="#c9825b" d="M10600 18315 c-107 -17 -231 -56 -335 -106 -110 -52 -197 -108 -189
-121 4 -7 2 -8 -4 -4 -28 17 -213 -157 -306 -288 -61 -86 -161 -280 -152 -295
4 -5 2 -11 -4 -13 -12 -4 -21 -78 -9 -78 5 0 9 -7 9 -15 0 -8 -5 -15 -12 -15
-6 0 -3 -7 8 -15 16 -13 180 -14 1238 -15 877 0 1223 3 1233 11 18 15 16 36
-6 105 -37 112 -114 255 -187 344 -147 177 -268 280 -412 350 -23 11 -47 18
-52 15 -6 -3 -10 1 -10 10 0 11 -5 15 -15 11 -8 -3 -15 -2 -15 2 0 7 -26 20
-100 48 -19 8 -44 11 -55 8 -14 -4 -16 -3 -7 4 16 11 -98 44 -208 62 -88 14
-306 11 -410 -5z"/>

<!-- Plate (Dark) -->
<path fill="#4b2f23" d="M9253 17122 c-83 -12 -27 -115 96 -176 82 -41 173 -74 243 -90 51
-11 54 -13 83 -71 39 -77 68 -97 153 -107 92 -10 1932 -9 2007 1 69 10 97 35
124 117 l16 49 70 18 c286 73 443 171 396 246 -8 12 -239 14 -1588 15 -868 1
-1588 0 -1600 -2z"/>

</g>
</svg>
