<?xml version="1.0" standalone="no"?>
<!DOCTYPE svg PUBLIC "-//W3C//DTD SVG 20010904//EN"
 "http://www.w3.org/TR/2001/REC-SVG-20010904/DTD/svg10.dtd">
<svg version="1.0" xmlns="http://www.w3.org/2000/svg"
 viewBox="850 1850 2850 500"
 preserveAspectRatio="xMidYMid meet">

<g transform="translate(0.000000,4028.000000) scale(0.100000,-0.100000)" stroke="none">

<!-- Heart (Warm) -->
<path fill="#c9825b" d="M11015 21540 c-66 -9 -92 -20 -144 -64 -46 -39 -58 -38 -96 4 -33 37
-94 60 -163 60 -74 0 -105 -14 -155 -69 -87 -97 -70 -214 50 -334 31 -31 61
-57 65 -57 4 0 8 -6 8 -13 0 -19 97 -110 109 -102 6 3 8 0 5 -9 -3 -9 3 -19
16 -26 12 -6 36 -26 53 -45 69 -72 88 -62 291 150 163 171 167 176 189 235 22
60 21 85 -7 145 -44 96 -120 139 -221 125z"/>

<!-- Roof (Warm) -->
<path fill="#c9825b" d="M10774 20667 c-12 -7 -53 -39 -90 -73 -106 -94 -162 -142 -275 -235
-57 -48 -158 -135 -224 -194 -66 -59 -185 -162 -265 -228 -184 -155 -296 -257
-293 -268 2 -5 -3 -8 -10 -6 -6 1 -11 -4 -9 -11 1 -8 -2 -11 -8 -7 -6 3 -52
-29 -103 -72 -176 -149 -292 -248 -372 -318 -44 -39 -125 -109 -180 -155 -148
-125 -146 -123 -157 -144 -7 -13 -7 -16 1 -12 6 4 11 3 11 -3 0 -5 -4 -13 -10
-16 -5 -3 -10 -15 -10 -26 0 -21 -2 -21 120 -23 47 -1 95 -7 107 -14 l23 -12
2 -718 3 -717 24 -32 c17 -23 35 -34 64 -38 34 -6 43 -4 66 19 l26 26 5 843 5
842 36 35 c20 19 56 51 80 71 156 129 203 169 282 241 48 44 100 90 115 101
15 12 29 24 32 27 3 3 30 25 60 50 30 24 89 74 131 110 42 36 101 86 130 111
30 25 95 81 144 124 50 42 104 88 120 101 42 33 267 225 344 293 112 98 131
104 181 59 31 -28 81 -70 145 -123 27 -22 70 -58 95 -80 25 -22 81 -69 125
-105 44 -35 100 -83 123 -105 24 -22 46 -38 50 -37 3 2 9 -3 14 -12 5 -9 14
-13 20 -10 6 4 8 2 4 -4 -3 -6 -2 -13 4 -17 5 -3 10 -1 10 5 0 6 5 8 10 5 6
-4 8 -10 5 -14 -2 -5 19 -28 47 -52 29 -24 60 -52 71 -63 14 -13 21 -15 27 -7
5 9 10 8 20 -4 11 -13 10 -15 -6 -9 -11 3 -3 -9 20 -30 21 -20 43 -33 48 -30
5 3 7 1 6 -4 -4 -12 28 -42 136 -129 44 -37 86 -71 92 -77 77 -76 226 -196
235 -190 4 2 11 -1 15 -7 5 -8 2 -10 -7 -5 -8 4 -5 1 5 -6 10 -7 30 -25 44
-41 40 -43 128 -108 143 -105 7 2 13 -2 14 -9 0 -7 9 -23 20 -35 20 -23 20
-41 25 -858 4 -677 8 -839 18 -855 21 -31 59 -45 107 -38 33 4 46 11 54 31 9
18 12 224 11 758 0 498 3 735 10 739 6 4 53 7 106 8 71 2 97 6 104 17 8 13 10
13 10 1 0 -12 3 -12 12 -3 10 10 10 15 -1 21 -11 7 -11 10 4 12 15 4 15 6 -4
31 -12 15 -63 62 -114 104 -51 43 -95 82 -98 87 -4 5 -12 6 -19 2 -8 -5 -11
-4 -7 2 9 15 -39 57 -54 48 -7 -5 -10 -4 -6 2 6 10 -9 26 -101 106 -18 15 -38
25 -44 21 -6 -4 -8 -3 -5 3 3 5 -25 40 -63 77 l-69 66 -3 396 c-3 338 -5 396
-18 404 -19 12 -340 13 -359 1 -8 -5 -11 -16 -8 -26 4 -9 3 -14 -2 -11 -8 5
-21 -183 -21 -309 0 -86 -9 -95 -59 -62 -23 15 -41 24 -42 20 0 -5 -4 1 -8 12
-5 11 -34 33 -65 49 -54 28 -96 60 -96 73 0 4 12 -4 26 -18 16 -15 25 -18 22
-9 -2 8 -18 22 -36 31 -17 9 -29 19 -25 23 10 10 -12 7 -25 -4 -9 -7 -9 -7 -2
2 15 18 12 31 -6 24 -8 -3 -13 -2 -9 3 5 8 -133 134 -265 241 -30 25 -66 55
-80 66 -108 93 -134 113 -144 107 -6 -3 -8 -2 -3 2 4 5 -3 19 -15 32 -25 27
-47 31 -27 6 13 -16 12 -17 -3 -4 -10 7 -16 17 -13 21 5 9 -96 100 -132 119
-28 14 -72 14 -99 -2z m761 -577 c3 -5 1 -10 -4 -10 -6 0 -11 5 -11 10 0 6 2
10 4 10 3 0 8 -4 11 -10z m-1865 -394 c0 -2 -7 -7 -16 -10 -8 -3 -12 -2 -9 4
6 10 25 14 25 6z m2861 -453 c13 -16 12 -17 -3 -4 -10 7 -18 15 -18 17 0 8 8
3 21 -13z"/>

<!-- d (Dark) -->
<path fill="#4b2f23" d="M22060 20029 c-69 -16 -204 -45 -300 -64 -241 -49 -250 -52 -250 -76
0 -33 19 -59 44 -59 38 0 119 -40 149 -74 61 -67 58 -38 60 -499 1 -234 -1
-429 -6 -433 -4 -4 -24 6 -45 23 -100 80 -219 113 -412 114 -161 0 -254 -16
-367 -65 -265 -114 -467 -347 -572 -661 -61 -182 -84 -421 -62 -638 38 -367
195 -636 443 -761 156 -78 321 -96 502 -55 116 26 321 126 431 209 l80 60 6
-72 c4 -40 7 -103 8 -139 1 -51 5 -68 17 -73 8 -3 61 3 117 13 56 11 158 27
227 36 135 18 344 53 373 61 11 4 17 15 17 35 0 54 -14 66 -82 73 -122 14
-172 64 -189 191 -4 33 -8 696 -9 1473 l0 1412 -28 -1 c-15 -1 -83 -14 -152
-30z m-631 -1210 c36 -5 87 -21 115 -34 61 -28 154 -121 190 -189 l26 -49 0
-691 0 -692 -72 -41 c-89 -50 -147 -70 -244 -84 -103 -16 -237 2 -321 41 -150
69 -259 233 -315 470 -25 109 -36 425 -19 568 35 285 167 542 334 650 46 29
152 61 207 61 19 1 64 -4 99 -10z"/>

<!-- Steam 1 (Dark) -->
<path fill="#4b2f23" d="M11677 19979 c7 -7 15 -10 18 -7 3 3 -2 9 -12 12 -14 6 -15 5 -6 -5z"/>

<!-- Steam 2 (Dark) -->
<path fill="#4b2f23" d="M10874 19808 c-21 -19 -51 -62 -68 -98 -28 -61 -30 -72 -31 -190 0
-126 0 -126 37 -202 22 -44 65 -106 104 -149 127 -141 149 -192 142 -321 -3
-61 -10 -88 -48 -167 l-44 -93 23 -20 c93 -75 260 158 261 363 0 74 -31 171
-74 234 -19 28 -66 85 -105 129 -39 43 -83 103 -97 132 -24 50 -26 62 -22 151
3 70 11 116 28 162 l24 64 -23 18 c-34 27 -65 23 -107 -13z"/>

<!-- F (Dark) -->
<path fill="#4b2f23" d="M14478 19703 l-1008 -3 0 -49 c0 -52 10 -61 68 -61 30 0 133 -42 161
-66 12 -10 37 -48 54 -84 32 -65 32 -66 38 -270 12 -360 10 -1921 -2 -2007
-19 -140 -63 -207 -165 -253 -26 -11 -66 -23 -88 -26 -53 -8 -106 -40 -106
-65 0 -22 4 -23 31 -9 15 8 19 7 19 -5 0 -8 3 -15 8 -15 1048 -2 1206 0 1212
12 4 7 5 29 3 49 -5 37 -5 37 -61 44 -140 17 -240 58 -283 118 -58 80 -59 92
-59 655 l0 514 288 -4 c254 -3 291 -6 322 -22 47 -25 117 -104 126 -141 3 -16
10 -36 15 -45 5 -8 21 -55 35 -103 24 -80 29 -88 48 -83 12 3 33 6 49 6 l27 0
0 418 c0 229 -3 427 -6 439 -8 27 -64 46 -99 33 -17 -7 -26 -21 -34 -59 -13
-59 -68 -174 -106 -219 -14 -17 -44 -40 -68 -51 -39 -18 -64 -20 -322 -23
l-280 -3 0 580 c0 319 4 592 8 606 4 15 15 30 24 35 10 4 179 10 376 12 l357
4 66 -31 c142 -67 224 -190 305 -461 29 -98 33 -102 88 -98 l46 3 2 130 c2 72
0 236 -5 365 l-7 235 -35 0 c-19 0 -488 -1 -1042 -2z"/>

<!-- & (Dark) -->
<path fill="#4b2f23" d="M23770 19696 c-175 -31 -293 -91 -410 -206 -86 -85 -145 -187 -176
-305 -27 -102 -25 -265 5 -375 25 -92 128 -318 185 -403 20 -30 36 -60 36 -68
0 -8 -44 -41 -97 -74 -198 -122 -305 -213 -388 -329 -216 -303 -201 -710 35
-945 133 -133 361 -224 595 -237 304 -18 584 68 806 246 68 54 74 57 86 36 4
-8 53 -66 107 -130 l100 -116 393 0 393 0 0 28 c0 62 -6 67 -83 79 -94 13
-209 68 -298 143 -74 62 -204 200 -275 292 l-45 57 90 183 c49 101 112 248
141 328 116 320 154 401 216 463 33 33 147 93 207 108 54 13 68 33 58 82 l-6
29 -430 -1 c-286 -2 -432 -6 -436 -13 -8 -13 6 -77 20 -91 6 -6 32 -11 58 -12
87 -2 182 -70 203 -144 17 -61 12 -238 -9 -326 -32 -130 -167 -485 -191 -500
-12 -8 -444 512 -678 814 l-103 134 93 50 c51 27 107 57 123 65 65 34 183 119
244 176 119 113 191 258 206 411 23 252 -168 482 -448 539 -111 23 -239 28
-327 12z m152 -131 c26 -7 62 -24 80 -37 124 -89 182 -221 182 -423 0 -222
-72 -373 -236 -497 -88 -66 -115 -81 -133 -74 -39 15 -193 287 -235 416 -49
148 -52 329 -8 445 54 140 206 214 350 170z m-347 -1432 c98 -132 262 -345
450 -582 218 -276 315 -404 315 -418 0 -17 -108 -86 -182 -116 -190 -76 -396
-75 -553 2 -194 96 -304 242 -362 479 -11 44 -16 106 -15 182 2 215 69 385
211 538 39 42 45 38 136 -85z"/>

<!-- H (Dark) -->
<path fill="#4b2f23" d="M25780 19648 l0 -48 35 0 c19 0 65 -11 102 -24 51 -19 78 -36 110
-70 73 -81 74 -90 84 -546 10 -503 9 -1677 -1 -1786 -6 -60 -16 -100 -40 -148
-39 -82 -76 -109 -180 -131 -74 -15 -100 -32 -100 -64 1 -44 -12 -43 581 -42
l564 1 0 47 0 46 -84 19 c-140 30 -199 88 -221 218 -7 43 -10 235 -8 565 l3
500 597 3 597 2 6 -42 c4 -24 5 -270 3 -548 l-3 -505 -28 -55 c-50 -101 -92
-134 -181 -145 -94 -11 -106 -18 -106 -64 0 -32 4 -39 23 -42 12 -2 266 -3
565 -1 l542 3 0 38 c0 21 -6 44 -13 50 -8 6 -44 15 -82 20 -38 6 -80 18 -94
29 -37 27 -88 97 -103 140 -16 48 -24 2213 -8 2301 5 31 22 81 37 111 32 64
80 93 181 112 l62 12 0 48 0 48 -549 0 -548 0 -7 -41 c-8 -48 -2 -59 30 -59
33 0 163 -46 184 -65 18 -16 35 -47 73 -135 l24 -55 -1 -492 c-1 -332 -4 -495
-12 -503 -7 -7 -194 -9 -600 -8 l-589 3 0 520 c0 472 2 524 18 564 40 101 94
140 224 164 l68 12 -1 43 -1 43 -577 2 -576 3 0 -48z"/>

<!-- Steam 3 (Dark) -->
<path fill="#4b2f23" d="M10354 19473 c-54 -59 -77 -132 -78 -243 -1 -128 16 -163 144 -295
77 -79 100 -109 101 -131 2 -61 -2 -111 -13 -172 -12 -62 -11 -64 12 -83 53
-41 106 -1 145 106 23 63 27 85 23 157 -5 107 -20 137 -119 234 -128 127 -147
185 -112 348 l17 79 -23 18 c-34 28 -59 23 -97 -18z"/>

<!-- o (Dark) -->
<path fill="#4b2f23" d="M16515 18965 c-205 -33 -346 -101 -495 -241 -215 -203 -323 -454
-345 -809 -13 -201 36 -466 118 -637 165 -347 468 -538 852 -538 397 0 690
154 893 469 68 106 85 143 117 262 57 210 68 387 40 603 -55 419 -312 743
-680 859 -145 45 -338 58 -500 32z m298 -135 c20 -11 43 -20 50 -20 28 0 111
-77 158 -146 106 -157 153 -329 170 -620 36 -598 -91 -1026 -340 -1146 -60
-29 -75 -32 -161 -32 -91 -1 -100 1 -172 37 -100 49 -157 111 -219 242 -73
153 -103 288 -119 543 -19 298 20 648 92 821 81 195 166 286 308 331 14 5 63
9 110 9 67 1 93 -3 123 -19z"/>

<!-- o (Dark) -->
<path fill="#4b2f23" d="M18830 18964 c-310 -47 -556 -223 -703 -503 -99 -187 -141 -372 -141
-621 0 -252 35 -406 133 -597 93 -179 232 -316 416 -408 128 -64 221 -85 395
-92 129 -4 158 -2 261 20 206 45 347 119 489 257 178 174 277 378 321 660 17
109 6 351 -21 473 -84 381 -328 668 -663 781 -68 23 -234 46 -319 45 -40 -1
-116 -7 -168 -15z m314 -143 c98 -43 176 -128 238 -261 49 -103 74 -194 99
-351 29 -187 24 -551 -10 -739 -45 -246 -103 -383 -211 -491 -85 -86 -149
-113 -268 -112 -74 0 -90 4 -156 37 -180 89 -290 295 -331 621 -25 198 -29
419 -11 590 44 418 182 671 393 725 60 15 205 4 257 -19z"/>

<!-- o (Dark) -->
<path fill="#4b2f23" d="M29740 18969 c-241 -28 -368 -82 -530 -221 -171 -148 -290 -349 -351
-598 -34 -142 -39 -414 -9 -559 76 -374 264 -636 554 -772 119 -56 239 -80
395 -80 315 0 541 87 738 287 227 228 335 531 319 889 -7 170 -18 245 -52 350
-104 321 -336 568 -619 658 -141 46 -306 63 -445 46z m253 -152 c143 -65 265
-250 316 -477 32 -146 41 -251 42 -473 0 -349 -32 -526 -133 -735 -61 -125
-116 -185 -213 -233 -65 -31 -77 -34 -165 -33 -127 0 -190 25 -268 103 -150
149 -227 406 -239 796 -11 359 28 611 122 800 78 156 143 224 255 265 78 29
205 23 283 -13z"/>

<!-- m (Dark) -->
<path fill="#4b2f23" d="M31700 18954 c-36 -7 -189 -34 -340 -59 -151 -26 -278 -49 -282 -52
-17 -10 -6 -44 23 -78 24 -27 39 -35 66 -35 41 0 75 -30 119 -105 l29 -50 0
-765 c0 -601 -3 -773 -13 -802 -21 -59 -72 -101 -144 -118 l-63 -16 -3 -42 -3
-42 460 0 461 0 0 45 c0 44 0 44 -42 55 -72 18 -97 31 -127 65 -57 65 -56 50
-56 800 0 380 4 701 8 715 11 39 149 133 242 165 96 33 240 45 310 25 63 -18
117 -59 150 -115 55 -95 55 -93 55 -835 0 -772 5 -724 -78 -787 -29 -22 -59
-35 -92 -39 l-50 -7 0 -46 0 -46 452 2 c248 2 452 4 453 5 1 2 5 22 9 45 l6
42 -46 7 c-62 9 -133 59 -164 114 l-25 45 2 655 c2 360 3 683 3 717 l0 62 60
45 c124 95 249 136 409 136 139 0 206 -35 270 -142 46 -78 51 -138 55 -683 2
-280 1 -581 -3 -667 -5 -136 -9 -160 -27 -185 -34 -46 -108 -90 -164 -98 -57
-8 -65 -18 -53 -66 l9 -33 467 -1 c458 0 466 0 471 20 3 11 6 34 6 52 0 29 -3
33 -37 38 -97 16 -168 64 -194 132 -5 14 -9 273 -9 611 0 612 -8 826 -35 927
-25 97 -74 184 -141 252 -109 111 -235 151 -434 140 -165 -10 -296 -51 -423
-133 -74 -48 -201 -170 -212 -204 -12 -38 -32 -20 -74 64 -57 116 -103 164
-203 215 -67 34 -101 44 -175 53 -116 15 -257 1 -361 -35 -140 -49 -289 -154
-378 -268 l-49 -62 -6 99 c-4 54 -7 138 -8 186 0 48 -4 89 -8 91 -5 2 -37 -2
-73 -9z"/>

<!-- e (Dark) -->
<path fill="#4b2f23" d="M35470 18956 c-171 -36 -313 -117 -456 -260 -131 -131 -215 -267
-275 -447 -43 -128 -58 -214 -65 -369 -22 -462 145 -828 463 -1015 321 -188
802 -136 1077 116 62 58 189 206 219 256 7 10 -38 93 -50 93 -2 0 -44 -36 -94
-80 -146 -129 -274 -180 -450 -180 -409 0 -677 308 -706 811 l-6 109 299 0
c524 0 988 11 996 24 13 20 8 180 -8 277 -20 118 -65 254 -112 339 -52 95
-177 215 -272 261 -122 60 -168 70 -340 74 -108 3 -175 0 -220 -9z m225 -131
c22 -8 48 -15 58 -15 9 0 38 -19 62 -42 59 -54 120 -177 141 -283 19 -96 24
-329 8 -345 -18 -18 -824 -22 -831 -4 -10 27 46 290 81 375 60 149 147 255
242 295 79 33 178 41 239 19z"/>

<!-- Dome (Warm) -->
<path fill="#c9825b" d="M10600 18315 c-107 -17 -231 -56 -335 -106 -110 -52 -197 -108 -189
-121 4 -7 2 -8 -4 -4 -28 17 -213 -157 -306 -288 -61 -86 -161 -280 -152 -295
4 -5 2 -11 -4 -13 -12 -4 -21 -78 -9 -78 5 0 9 -7 9 -15 0 -8 -5 -15 -12 -15
-6 0 -3 -7 8 -15 16 -13 180 -14 1238 -15 877 0 1223 3 1233 11 18 15 16 36
-6 105 -37 112 -114 255 -187 344 -147 177 -268 280 -412 350 -23 11 -47 18
-52 15 -6 -3 -10 1 -10 10 0 11 -5 15 -15 11 -8 -3 -15 -2 -15 2 0 7 -26 20
-100 48 -19 8 -44 11 -55 8 -14 -4 -16 -3 -7 4 16 11 -98 44 -208 62 -88 14
-306 11 -410 -5z"/>

<!-- Plate (Dark) -->
<path fill="#4b2f23" d="M9253 17122 c-83 -12 -27 -115 96 -176 82 -41 173 -74 243 -90 51
-11 54 -13 83 -71 39 -77 68 -97 153 -107 92 -10 1932 -9 2007 1 69 10 97 35
124 117 l16 49 70 18 c286 73 443 171 396 246 -8 12 -239 14 -1588 15 -868 1
-1588 0 -1600 -2z"/>

</g>
</svg>
